<svg width="40" height="40" viewBox="0 0 40 40" fill="none" xmlns="http://www.w3.org/2000/svg">
<rect width="40" height="40" rx="20" fill="#FF6700"/>
<path d="M11.38 21.8C10.26 22.3067 9.41333 22.78 8.84 23.22C8.28 23.6467 8 24.0933 8 24.56C8 24.9467 8.10667 25.2533 8.32 25.48C8.53333 25.7067 8.8 25.82 9.12 25.82C9.44 25.82 9.74 25.7667 10.02 25.66C10.3 25.54 10.54 25.3867 10.74 25.2C10.94 25.0133 11.0933 24.7933 11.2 24.54C11.32 24.2733 11.38 23.9933 11.38 23.7V21.8ZM11.38 20.74V19.9C11.38 19.1267 11.24 18.5667 10.96 18.22C10.6933 17.86 10.2733 17.68 9.7 17.68C9.31333 17.68 9.02 17.7867 8.82 18C8.62 18.2 8.43333 18.54 8.26 19.02C8.14 19.3533 7.96667 19.6133 7.74 19.8C7.52667 19.9867 7.22667 20.08 6.84 20.08C6.46667 20.08 6.18 19.9667 5.98 19.74C5.78 19.5133 5.68 19.1933 5.68 18.78C5.68 18.14 6.02667 17.6333 6.72 17.26C7.42667 16.8867 8.48667 16.7 9.9 16.7C11.3933 16.7 12.46 16.9733 13.1 17.52C13.74 18.0533 14.06 18.9533 14.06 20.22V24.6C14.06 25.7333 14.2867 26.3 14.74 26.3C14.9933 26.3 15.2267 26.2133 15.44 26.04L15.74 26.62C15.5533 26.9533 15.26 27.22 14.86 27.42C14.4733 27.6067 14.0333 27.7 13.54 27.7C12.9267 27.7 12.46 27.5133 12.14 27.14C11.82 26.7667 11.66 26.24 11.66 25.56H11.56C11.1733 26.2533 10.6733 26.78 10.06 27.14C9.44667 27.5 8.74667 27.68 7.96 27.68C7.12 27.68 6.44667 27.4467 5.94 26.98C5.43333 26.5 5.18 25.88 5.18 25.12C5.18 24.5333 5.44 23.9867 5.96 23.48C6.48 22.96 7.34667 22.4533 8.56 21.96L11.38 20.74ZM17.3044 26.22C17.3044 25.7933 17.4444 25.4333 17.7244 25.14C18.0177 24.8333 18.3777 24.68 18.8044 24.68C19.2444 24.68 19.611 24.8333 19.9044 25.14C20.1977 25.4333 20.3444 25.7933 20.3444 26.22C20.3444 26.6333 20.1977 26.9867 19.9044 27.28C19.611 27.56 19.2444 27.7 18.8044 27.7C18.3777 27.7 18.0177 27.56 17.7244 27.28C17.4444 26.9867 17.3044 26.6333 17.3044 26.22ZM17.3044 19.9C17.3044 19.4733 17.4444 19.1133 17.7244 18.82C18.0177 18.5133 18.3777 18.36 18.8044 18.36C19.2444 18.36 19.611 18.5133 19.9044 18.82C20.1977 19.1133 20.3444 19.4733 20.3444 19.9C20.3444 20.3133 20.1977 20.6667 19.9044 20.96C19.611 21.24 19.2444 21.38 18.8044 21.38C18.3777 21.38 18.0177 21.24 17.7244 20.96C17.4444 20.6667 17.3044 20.3133 17.3044 19.9ZM22.568 17.28C22.568 16.5333 22.7146 15.8333 23.008 15.18C23.3146 14.5267 23.728 13.96 24.248 13.48C24.768 12.9867 25.3746 12.6 26.068 12.32C26.7746 12.04 27.528 11.9 28.328 11.9C29.1946 11.9 29.988 12.0733 30.708 12.42C31.428 12.7533 32.0413 13.2267 32.548 13.84C33.068 14.4533 33.468 15.1867 33.748 16.04C34.0413 16.8933 34.188 17.8267 34.188 18.84C34.188 20.0533 34.0013 21.2 33.628 22.28C33.2546 23.3467 32.748 24.2867 32.108 25.1C31.468 25.9 30.7213 26.5333 29.868 27C29.0146 27.4667 28.1013 27.7 27.128 27.7C26.5946 27.7 26.0946 27.64 25.628 27.52C25.1613 27.4133 24.7546 27.26 24.408 27.06C24.0746 26.86 23.808 26.6267 23.608 26.36C23.408 26.08 23.308 25.78 23.308 25.46C23.308 25.0733 23.428 24.7733 23.668 24.56C23.908 24.3333 24.228 24.22 24.628 24.22C24.8946 24.22 25.108 24.28 25.268 24.4C25.4413 24.52 25.5813 24.6667 25.688 24.84C25.808 25.0133 25.9146 25.2067 26.008 25.42C26.1013 25.62 26.2146 25.8067 26.348 25.98C26.4946 26.1533 26.6746 26.3 26.888 26.42C27.1013 26.54 27.388 26.6 27.748 26.6C28.2013 26.6 28.6213 26.46 29.008 26.18C29.3946 25.8867 29.728 25.4933 30.008 25C30.3013 24.4933 30.528 23.9 30.688 23.22C30.848 22.54 30.928 21.8 30.928 21L30.868 20.96C30.4413 21.44 29.9813 21.7933 29.488 22.02C28.9946 22.2467 28.4146 22.36 27.748 22.36C27.0146 22.36 26.328 22.2333 25.688 21.98C25.0613 21.7133 24.5146 21.3533 24.048 20.9C23.5946 20.4467 23.2346 19.9133 22.968 19.3C22.7013 18.6733 22.568 18 22.568 17.28ZM30.868 17.86C30.868 16.2467 30.6413 15.0333 30.188 14.22C29.748 13.4067 29.1013 13 28.248 13C27.408 13 26.788 13.34 26.388 14.02C25.988 14.7 25.788 15.76 25.788 17.2C25.788 18.5067 25.9746 19.5 26.348 20.18C26.7346 20.8467 27.2946 21.18 28.028 21.18C28.6146 21.18 29.128 20.9933 29.568 20.62C30.008 20.2467 30.4413 19.6533 30.868 18.84V17.86Z" fill="#171717"/>
</svg>
